<?xml version="1.0" encoding="utf-8"?>
<!-- Generator: Adobe Illustrator 21.0.0, SVG Export Plug-In . SVG Version: 6.00 Build 0)  -->
<svg version="1.1" id="레이어_1" xmlns="http://www.w3.org/2000/svg" xmlns:xlink="http://www.w3.org/1999/xlink" x="0px"
	 y="0px" viewBox="0 0 105 22.4" style="enable-background:new 0 0 105 22.4;" xml:space="preserve">
<style type="text/css">
	.st0{fill:#843DE0;}
</style>
<g>
	<g>
		<path class="st0" d="M9.3,18.4L9.3,18.4l-2.1-5.9l4-12.5H0l7.8,22.4h2.6L18.2,0h-2.7L9.3,18.4z M21.4,22.4h2.8V0h-2.8V22.4z
			 M32.5,12h10V9.5h-10v-7h10.1V0H29.7v22.4h13v-2.5H32.5V12z M64.5,17.8L64.5,17.8L59.5,0h-2.3l-4.9,17.8h-0.1L48.1,0h-2.9
			l5.5,22.4h2.7l4.8-17.5h0.1L63,22.4h2.7L71.1,0h-2.6L64.5,17.8z M77.3,12h10V9.5h-10v-7h10.1V0H74.5v22.4h13v-2.5H77.3V12z
			 M94.8,19.9v-7.8h10V9.6h-10V2.5h10.1V0H92v22.4h13v-2.5H94.8z"/>
	</g>
</g>
</svg>
